<?xml version="1.0" encoding="UTF-8"?>
<svg xmlns="http://www.w3.org/2000/svg" width="900" height="520" viewBox="0 0 900 520" aria-labelledby="titleDesc">
  <title id="titleDesc">IPPAD Organizational Chart</title>
  <defs>
    <style>
      .box{fill:#ffffff;stroke:#1b3f6e;stroke-width:2;rx:8;}
      .title{font:700 16px/1.2 'Outfit', Arial, sans-serif; fill:#10324a}
      .role{font:500 14px/1.1 'Outfit', Arial, sans-serif; fill:#10324a}
      .line{stroke:#1b3f6e;stroke-width:2}
      .bg{fill:#f7f9fb}
    </style>
  </defs>
  <rect class="bg" x="0" y="0" width="900" height="520" rx="6"/>

  <!-- Board -->
  <g transform="translate(300,20)">
    <rect class="box" x="0" y="0" width="300" height="92" rx="8"/>
    <text x="150" y="30" text-anchor="middle" class="title">Board of Directors</text>
    <text x="150" y="52" text-anchor="middle" class="role">Governance &amp; Strategy</text>
    <text x="150" y="74" text-anchor="middle" class="role">Chair: [Chair Name]</text>
  </g>

  <!-- Executive Director -->
  <g transform="translate(340,110)">
    <rect class="box" x="0" y="0" width="260" height="98" rx="8"/>
    <text x="130" y="30" text-anchor="middle" class="title">Executive Director</text>
    <text x="130" y="55" text-anchor="middle" class="role">Bishop Dr. Sam Moses</text>
    <text x="130" y="75" text-anchor="middle" class="role">Tukura, JP</text>
  </g>

  <!-- Lines to departments -->
  <line class="line" x1="450" y1="194" x2="190" y2="240"/>
  <line class="line" x1="450" y1="194" x2="450" y2="240"/>
  <line class="line" x1="450" y1="194" x2="710" y2="240"/>

  <!-- Left column -->
  <g transform="translate(80,240)">
    <rect class="box" x="0" y="0" width="220" height="92" rx="8"/>
    <text x="110" y="28" text-anchor="middle" class="title">Programs</text>
    <text x="110" y="48" text-anchor="middle" class="role">Lead: [Program Lead]</text>
    <text x="110" y="68" text-anchor="middle" class="role">[Officer 1], [Officer 2]</text>
  </g>

  <!-- Center column -->
  <g transform="translate(340,240)">
    <rect class="box" x="0" y="0" width="220" height="92" rx="8"/>
    <text x="110" y="28" text-anchor="middle" class="title">Operations</text>
    <text x="110" y="48" text-anchor="middle" class="role">Head: [Operations Lead]</text>
    <text x="110" y="68" text-anchor="middle" class="role">Finance, Admin</text>
  </g>

  <!-- Right column -->
  <g transform="translate(600,240)">
    <rect class="box" x="0" y="0" width="220" height="92" rx="8"/>
    <text x="110" y="28" text-anchor="middle" class="title">Communications</text>
    <text x="110" y="48" text-anchor="middle" class="role">Head: [Comms Lead]</text>
    <text x="110" y="68" text-anchor="middle" class="role">Press, Social, Web</text>
  </g>

  <!-- Bottom row: IT / Volunteers -->
  <g transform="translate(340,340)">
    <rect class="box" x="0" y="0" width="220" height="92" rx="8"/>
    <text x="110" y="28" text-anchor="middle" class="title">IT &amp; Volunteers</text>
    <text x="110" y="48" text-anchor="middle" class="role">Coordinator: [IT Lead]</text>
    <text x="110" y="68" text-anchor="middle" class="role">Volunteers &amp; Support</text>
  </g>

  <!-- Connect lines from Executive to columns -->
  <line class="line" x1="450" y1="194" x2="190" y2="240"/>
  <line class="line" x1="450" y1="194" x2="450" y2="240"/>
  <line class="line" x1="450" y1="194" x2="710" y2="240"/>

</svg>
